<svg width="118" height="29" viewBox="0 0 118 29" fill="none" xmlns="http://www.w3.org/2000/svg">
<path d="M35.8453 23.0153C35.4459 23.0153 35.0943 22.7516 34.9826 22.3681L30.3551 6.49002L29.4907 3.63751C29.4651 3.553 29.4521 3.46519 29.4521 3.37689V2.60268C29.4521 2.10636 29.8544 1.70402 30.3507 1.70402H35.7087C36.1326 1.70402 36.4988 2.00017 36.5875 2.41463L39.5047 16.0472C39.5404 16.2139 39.6876 16.3329 39.8581 16.3329C40.0363 16.3329 40.188 16.2029 40.2151 16.0267L42.3079 2.46562C42.3755 2.02741 42.7527 1.70402 43.1961 1.70402H50.7775C51.2199 1.70402 51.5966 2.02606 51.6653 2.46314L53.2918 12.8112L53.7311 16.0234C53.7553 16.2007 53.9068 16.3329 54.0858 16.3329C54.2547 16.3329 54.4007 16.2149 54.436 16.0498L57.3538 2.41463C57.4425 2.00017 57.8087 1.70402 58.2326 1.70402H63.4702C63.9665 1.70402 64.3688 2.10636 64.3688 2.60268V3.51006L63.4658 6.49002L58.8677 22.3666C58.7564 22.7509 58.4045 23.0153 58.0045 23.0153H50.4696C50.0309 23.0153 49.6564 22.6986 49.5834 22.2661L47.2636 8.51502C47.2335 8.33648 47.0789 8.20576 46.8978 8.20576C46.7146 8.20576 46.5589 8.33949 46.5311 8.52057L46.0676 11.5469L44.3241 22.261C44.2534 22.6958 43.8777 23.0153 43.4371 23.0153H35.8453Z" fill="white"/>
<path d="M69.267 7.42643C68.9294 7.71836 68.4288 7.71836 68.0912 7.42643L65.0132 4.76436C64.5977 4.40504 64.599 3.76036 65.0159 3.40265L68.0939 0.761368C68.4305 0.472472 68.9277 0.472472 69.2643 0.761369L72.3424 3.40265C72.7592 3.76036 72.7605 4.40504 72.345 4.76436L69.267 7.42643ZM66.2366 23.0153C65.7403 23.0153 65.3379 22.6129 65.3379 22.1166V13.052L64.7731 10.9002C64.7292 10.7329 64.7345 10.5565 64.7884 10.3921L65.105 9.42646C65.226 9.05735 65.5705 8.80777 65.9589 8.80777H71.0614C71.5577 8.80777 71.9601 9.21012 71.9601 9.70644V22.1166C71.9601 22.6129 71.5577 23.0153 71.0614 23.0153H66.2366Z" fill="white"/>
<path d="M79.8328 23.3163C78.0669 23.3163 76.7726 22.9551 75.9498 22.2327C75.1271 21.5103 74.7157 20.4567 74.7157 19.0721V14.3118C74.7157 13.8155 74.3134 13.4132 73.817 13.4132H73.116C72.6197 13.4132 72.2173 13.0108 72.2173 12.5145V10.1636C72.2173 9.84569 72.3853 9.55141 72.6591 9.38977L74.4846 8.31207C74.6354 8.22307 74.7569 8.09198 74.8341 7.93489L76.3049 4.94516C76.4561 4.63784 76.7688 4.44318 77.1113 4.44318H80.4091C80.9054 4.44318 81.3077 4.84552 81.3077 5.34184V7.89993C81.3077 8.39982 81.7157 8.80363 82.2155 8.79855L84.7826 8.77245C85.2825 8.76737 85.6904 9.17118 85.6904 9.67107V12.6898C85.6904 13.1825 85.2936 13.5834 84.8009 13.5884L82.1973 13.6148C81.7045 13.6198 81.3077 14.0207 81.3077 14.5135V17.3547C81.3077 17.8534 81.7138 18.2567 82.2124 18.2534L84.9182 18.2353C85.4168 18.232 85.8228 18.6353 85.8228 19.134V21.8509C85.8228 22.1833 85.6012 22.4748 85.281 22.5638C84.9198 22.644 84.4382 22.7444 83.8362 22.8648C83.2543 22.9852 82.6121 23.0855 81.9098 23.1658C81.2074 23.2661 80.5151 23.3163 79.8328 23.3163Z" fill="white"/>
<path d="M93.444 23.3163C91.6781 23.3163 90.3837 22.9551 89.561 22.2327C88.7382 21.5103 88.3268 20.4567 88.3268 19.0721V14.3118C88.3268 13.8155 87.9245 13.4132 87.4282 13.4132H86.8137C86.3174 13.4132 85.9151 13.0108 85.9151 12.5145V10.1378C85.9151 9.83387 86.0686 9.55057 86.3233 9.38472L87.9684 8.31328C88.0952 8.23067 88.1991 8.11737 88.2705 7.98387L89.9091 4.91822C90.0654 4.62578 90.37 4.44318 90.7016 4.44318H94.0202C94.5165 4.44318 94.9189 4.84552 94.9189 5.34184V7.90911C94.9189 8.40543 95.3212 8.80777 95.8175 8.80777H98.5353C99.0316 8.80777 99.434 9.21012 99.434 9.70644V12.7252C99.434 13.2215 99.0316 13.6239 98.5353 13.6239H95.8175C95.3212 13.6239 94.9189 14.0262 94.9189 14.5225V17.3547C94.9189 17.8534 95.3249 18.2567 95.8235 18.2534L98.5293 18.2353C99.028 18.232 99.434 18.6353 99.434 19.134V21.8509C99.434 22.1833 99.2124 22.4748 98.8922 22.5638C98.531 22.644 98.0494 22.7444 97.4473 22.8648C96.8654 22.9852 96.2233 23.0855 95.5209 23.1658C94.8186 23.2661 94.1262 23.3163 93.444 23.3163Z" fill="white"/>
<path d="M74.7159 28.5237C74.7129 28.5237 74.7142 28.5237 74.7112 28.5237H37.4854C37.1125 28.5237 36.7783 28.2934 36.6456 27.9449L35.6385 25.3007C35.4136 24.7102 35.8522 24.0781 36.4841 24.0822L104.229 24.5184C104.578 24.5207 104.825 24.1797 104.715 23.849L104.266 22.8648L100.349 12.7856C100.325 12.7226 100.308 12.657 100.298 12.5901L99.891 9.8063C99.8117 9.26401 100.232 8.77767 100.78 8.77767H105.911C106.346 8.77767 106.719 9.09029 106.795 9.51935L108.267 17.8125C108.297 17.984 108.446 18.1089 108.62 18.1089C108.794 18.1089 108.943 17.984 108.974 17.8125L110.445 9.51935C110.521 9.09029 110.894 8.77767 111.33 8.77767H116.507C117.011 8.77767 117.382 9.25163 117.259 9.7409C117.119 10.363 116.918 11.1958 116.657 12.2393C116.396 13.2827 116.095 14.4366 115.754 15.7008C115.413 16.945 115.062 18.2092 114.701 19.4935C114.339 20.7577 113.978 21.9216 113.617 22.9852C112.794 25.4735 111.886 28.8566 109.954 28.8566C108.026 28.8566 74.8134 28.5247 74.7159 28.5237Z" fill="white"/>
<path fill-rule="evenodd" clip-rule="evenodd" d="M31.1139 27.5421L26.0254 10.1172C25.9135 9.73396 25.5621 9.47049 25.1628 9.47049H3.39277C2.79209 9.47049 2.3605 10.0485 2.53112 10.6244L6.51533 24.0738H4.49334C4.04401 24.0737 3.59468 24.0738 3.81935 24.5231C3.99171 24.8678 5.08972 27.0123 5.59162 27.9921C5.74534 28.2922 6.05341 28.4795 6.39059 28.4795H7.86331L30.2427 28.6927C30.8454 28.6984 31.2828 28.1208 31.1139 27.5421ZM11.2337 19.4353L12.2127 18.6486C12.4756 18.4374 12.8585 18.4804 13.0899 18.7256C15.6424 21.4304 19.3163 21.636 22.1553 18.8128C22.3913 18.5781 22.7695 18.5465 23.0248 18.76L23.8572 19.4565C24.0908 19.6519 24.1477 19.9909 23.9723 20.2399C20.865 24.6503 14.5271 24.4766 11.1315 20.2576C10.9282 20.0049 10.9809 19.6385 11.2337 19.4353ZM14.8279 15.982C14.3224 15.3079 13.1141 15.1437 12.4281 16.0012C12.1598 16.3366 11.6704 16.3909 11.335 16.1226C10.9997 15.8543 10.9453 15.3649 11.2136 15.0295C12.6015 13.2947 15.0224 13.649 16.0722 15.0488C16.3299 15.3924 16.2603 15.8798 15.9167 16.1375C15.5731 16.3952 15.0856 16.3256 14.8279 15.982ZM18.6496 16.0012C19.3356 15.1437 20.5439 15.3079 21.0494 15.982C21.3071 16.3256 21.7946 16.3952 22.1382 16.1375C22.4818 15.8798 22.5514 15.3924 22.2937 15.0488C21.2439 13.649 18.823 13.2947 17.4351 15.0295C17.1668 15.3649 17.2212 15.8543 17.5565 16.1226C17.8919 16.3909 18.3813 16.3366 18.6496 16.0012Z" fill="white"/>
<path d="M19.6493 1.60718H7.18049C3.52966 1.60718 0.847754 5.03349 1.72459 8.57747C1.75642 8.70611 1.87186 8.79647 2.00438 8.79647H28.4669C29.0632 8.79647 29.4942 8.22633 29.3315 7.65264L28.9493 6.30465C28.8396 5.918 28.4866 5.65115 28.0847 5.65115H24.6906C24.5726 5.65115 24.4703 5.56915 24.4447 5.45389C23.9453 3.2063 21.9518 1.60718 19.6493 1.60718Z" fill="white"/>
</svg>
