<svg width="203" height="50" viewBox="0 0 203 50" fill="none" xmlns="http://www.w3.org/2000/svg">
<path d="M61.8053 39.9592C61.2627 39.9592 60.7853 39.601 60.6334 39.0801L52.611 11.5533L51.1113 6.604C51.0765 6.48922 51.0588 6.36994 51.0588 6.25001V4.54703C51.0588 3.8729 51.6053 3.32642 52.2794 3.32642H62.0757C62.6514 3.32642 63.1488 3.72866 63.2693 4.29162L68.3388 27.9815C68.4001 28.268 68.6532 28.4726 68.9461 28.4726C69.2525 28.4726 69.5132 28.2491 69.5599 27.9463L73.1996 4.36087C73.2915 3.76567 73.8037 3.32642 74.406 3.32642H87.9931C88.5941 3.32642 89.1056 3.76384 89.1989 4.3575L92.0379 22.4189L92.7929 27.9405C92.8346 28.2454 93.0951 28.4726 93.4028 28.4726C93.6931 28.4726 93.9439 28.2698 94.0047 27.9859L99.0751 4.29162C99.1955 3.72866 99.693 3.32642 100.269 3.32642H109.858C110.532 3.32642 111.079 3.87291 111.079 4.54703V6.43089L109.526 11.5533L101.555 39.0781C101.404 39.6 100.926 39.9592 100.382 39.9592H86.9126C86.3168 39.9592 85.8081 39.5291 85.709 38.9416L81.6758 15.0341C81.624 14.7272 81.3583 14.5025 81.047 14.5025C80.7321 14.5025 80.4644 14.7324 80.4167 15.0437L79.62 20.2458L76.5787 38.9346C76.4826 39.5253 75.9724 39.9592 75.374 39.9592H61.8053Z" fill="url(#paint0_linear_36_32)"/>
<path d="M119.286 13.3463C118.828 13.7428 118.148 13.7428 117.689 13.3463L111.902 8.34083C111.337 7.85278 111.339 6.97713 111.905 6.49128L117.693 1.52493C118.15 1.13253 118.825 1.13253 119.283 1.52493L125.07 6.49128C125.636 6.97714 125.638 7.85278 125.074 8.34083L119.286 13.3463ZM113.965 39.9592C113.291 39.9592 112.744 39.4127 112.744 38.7386V22.8329L111.749 19.0417C111.69 18.8144 111.697 18.5748 111.77 18.3515L112.417 16.3777C112.582 15.8763 113.049 15.5373 113.577 15.5373H122.907C123.581 15.5373 124.128 16.0838 124.128 16.758V38.7386C124.128 39.4127 123.581 39.9592 122.907 39.9592H113.965Z" fill="url(#paint1_linear_36_32)"/>
<path d="M137.66 40.4766C134.625 40.4766 132.4 39.8557 130.986 38.6139C129.571 37.3721 128.864 35.5612 128.864 33.1811V24.6744C128.864 24.0002 128.318 23.4537 127.644 23.4537H125.79C125.116 23.4537 124.57 22.9073 124.57 22.2331V17.6829C124.57 17.2511 124.798 16.8514 125.17 16.6318L128.55 14.6361C128.755 14.5152 128.92 14.3371 129.025 14.1237L131.685 8.71668C131.89 8.29927 132.315 8.03486 132.78 8.03486H138.975C139.649 8.03486 140.196 8.58135 140.196 9.25548V14.3042C140.196 14.9832 140.75 15.5317 141.429 15.5248L146.496 15.4733C147.175 15.4664 147.729 16.0149 147.729 16.6939V22.5311C147.729 23.2004 147.19 23.7448 146.521 23.7516L141.404 23.8037C140.735 23.8105 140.196 24.3549 140.196 25.0242V30.5553C140.196 31.2326 140.747 31.7804 141.424 31.7759L146.728 31.7405C147.405 31.736 147.957 32.2838 147.957 32.9611V37.9966C147.957 38.5449 147.591 39.0259 147.063 39.1726C147.051 39.1761 147.038 39.1796 147.025 39.1831C146.405 39.3211 145.577 39.4935 144.542 39.7005C143.542 39.9075 142.438 40.0799 141.23 40.2179C140.023 40.3904 138.833 40.4766 137.66 40.4766Z" fill="url(#paint2_linear_36_32)"/>
<path d="M161.057 40.4766C158.022 40.4766 155.797 39.8557 154.382 38.6139C152.968 37.3721 152.261 35.5612 152.261 33.1811V24.6744C152.261 24.0002 151.715 23.4537 151.04 23.4537H149.336C148.662 23.4537 148.115 22.9073 148.115 22.2331V17.6478C148.115 17.235 148.324 16.8502 148.67 16.625L151.715 14.6419C151.887 14.5297 152.028 14.3758 152.125 14.1945L155.072 8.6801C155.285 8.28288 155.698 8.03486 156.149 8.03486H162.372C163.046 8.03486 163.592 8.58135 163.592 9.25548V14.3167C163.592 14.9909 164.139 15.5373 164.813 15.5373H170.133C170.807 15.5373 171.354 16.0838 171.354 16.758V22.5953C171.354 23.2694 170.807 23.8159 170.133 23.8159H164.813C164.139 23.8159 163.592 24.3624 163.592 25.0366V30.5553C163.592 31.2326 164.144 31.7804 164.821 31.7759L170.125 31.7405C170.802 31.736 171.354 32.2838 171.354 32.9611V37.9966C171.354 38.5449 170.988 39.0259 170.46 39.1726C170.447 39.1761 170.435 39.1796 170.422 39.1831C169.801 39.3211 168.973 39.4935 167.939 39.7005C166.938 39.9075 165.834 40.0799 164.627 40.2179C163.42 40.3904 162.23 40.4766 161.057 40.4766Z" fill="url(#paint3_linear_36_32)"/>
<path d="M128.864 49.4278C128.86 49.4278 128.862 49.4278 128.858 49.4278H65.0126C64.5149 49.4278 64.0671 49.1258 63.8808 48.6643L61.782 43.468C61.4567 42.6626 62.053 41.7847 62.9217 41.7903L179.596 42.543C180.195 42.5469 180.621 41.9607 180.431 41.3923L179.659 39.7005L172.914 22.3408C172.88 22.2552 172.857 22.1661 172.844 22.0752L172.085 16.8827C171.977 16.1462 172.548 15.4856 173.293 15.4856H182.758C183.35 15.4856 183.856 15.9102 183.96 16.493L186.536 31.0159C186.589 31.3106 186.845 31.5254 187.144 31.5254C187.444 31.5254 187.7 31.3106 187.752 31.0159L190.329 16.493C190.432 15.9102 190.939 15.4856 191.531 15.4856H200.845C201.639 15.4856 202.221 16.2315 202.029 17.0019C202.018 17.0473 202.006 17.0938 201.994 17.1413C201.753 18.2106 201.408 19.6421 200.959 21.4358C200.511 23.2295 199.993 25.2129 199.407 27.3861C198.821 29.5247 198.217 31.6978 197.596 33.9055C196.975 36.0786 196.354 38.0793 195.733 39.9075C194.319 44.1847 192.757 50 189.437 50C186.121 50 128.997 49.4292 128.864 49.4278Z" fill="url(#paint4_linear_36_32)"/>
<path fill-rule="evenodd" clip-rule="evenodd" d="M54.4598 48.1597L45.5226 17.5549C45.3705 17.0343 44.8932 16.6765 44.3509 16.6765H6.25247C5.43658 16.6765 4.85038 17.4615 5.08213 18.2438L12.054 41.7786H8.57835C7.80598 41.7786 7.03361 41.7786 7.4198 42.551C7.72692 43.1652 9.74371 47.1036 10.5567 48.6906C10.7655 49.0982 11.1835 49.3518 11.6415 49.3518H14.3711L53.2765 49.7224C54.0952 49.7302 54.6893 48.9456 54.4598 48.1597ZM20.0025 33.9358L22.0188 32.3155C22.3759 32.0286 22.8964 32.0863 23.2055 32.4242C27.6436 37.2759 34.1351 37.652 39.091 32.5812C39.407 32.2579 39.9206 32.2162 40.2673 32.5063L42.0104 33.9646C42.3276 34.23 42.4034 34.6914 42.1696 35.0327C36.8296 42.8304 25.7031 42.5163 19.86 35.0564C19.5884 34.7096 19.6591 34.2117 20.0025 33.9358ZM26.5673 27.7011C25.6002 26.4116 23.3045 26.095 21.9988 27.7272C21.6344 28.1827 20.9696 28.2566 20.5141 27.8921C20.0586 27.5277 19.9847 26.863 20.3491 26.4074C22.6082 23.5836 26.5509 24.1582 28.2574 26.4335C28.6074 26.9002 28.5129 27.5623 28.0461 27.9123C27.5794 28.2624 26.9173 28.1678 26.5673 27.7011ZM32.6932 27.7272C33.9989 26.095 36.2946 26.4116 37.2617 27.7011C37.6117 28.1678 38.2738 28.2624 38.7405 27.9123C39.2072 27.5623 39.3018 26.9002 38.9518 26.4335C37.2453 24.1582 33.3026 23.5836 31.0435 26.4074C30.6791 26.863 30.7529 27.5277 31.2085 27.8921C31.664 28.2566 32.3287 28.1827 32.6932 27.7272Z" fill="#66CC99"/>
<path d="M34.8767 3.15997H12.9135C6.7823 3.15997 2.27829 8.91415 3.75085 14.8659C3.84561 15.2489 4.18929 15.5179 4.58382 15.5179H50.2163C51.0263 15.5179 51.6116 14.7435 51.3906 13.9643L50.5498 10.9989C50.4008 10.4738 49.9213 10.1113 49.3754 10.1113H43.5423C43.1956 10.1113 42.8954 9.87051 42.8202 9.53205C41.9928 5.80892 38.6906 3.15997 34.8767 3.15997Z" fill="#66CC99"/>
<defs>
<linearGradient id="paint0_linear_36_32" x1="51.0588" y1="25.4214" x2="202.408" y2="25.4214" gradientUnits="userSpaceOnUse">
<stop stop-color="#66CC99"/>
<stop offset="1" stop-color="#4A90E2"/>
</linearGradient>
<linearGradient id="paint1_linear_36_32" x1="51.0588" y1="25.4214" x2="202.408" y2="25.4214" gradientUnits="userSpaceOnUse">
<stop stop-color="#66CC99"/>
<stop offset="1" stop-color="#4A90E2"/>
</linearGradient>
<linearGradient id="paint2_linear_36_32" x1="51.0588" y1="25.4214" x2="202.408" y2="25.4214" gradientUnits="userSpaceOnUse">
<stop stop-color="#66CC99"/>
<stop offset="1" stop-color="#4A90E2"/>
</linearGradient>
<linearGradient id="paint3_linear_36_32" x1="51.0588" y1="25.4214" x2="202.408" y2="25.4214" gradientUnits="userSpaceOnUse">
<stop stop-color="#66CC99"/>
<stop offset="1" stop-color="#4A90E2"/>
</linearGradient>
<linearGradient id="paint4_linear_36_32" x1="51.0588" y1="25.4214" x2="202.408" y2="25.4214" gradientUnits="userSpaceOnUse">
<stop stop-color="#66CC99"/>
<stop offset="1" stop-color="#4A90E2"/>
</linearGradient>
</defs>
</svg>
